<svg width="438" height="151" viewBox="0 0 438 151" fill="none" xmlns="http://www.w3.org/2000/svg">
<path d="M68.9531 88H53.8594L47.8594 72.3906H20.3906L14.7188 88H0L26.7656 19.2812H41.4375L68.9531 88ZM43.4062 60.8125L33.9375 35.3125L24.6562 60.8125H43.4062ZM76.3594 88V19.2812H98.625C107.062 19.2812 112.562 19.625 115.125 20.3125C119.062 21.3438 122.359 23.5938 125.016 27.0625C127.672 30.5 129 34.9531 129 40.4219C129 44.6406 128.234 48.1875 126.703 51.0625C125.172 53.9375 123.219 56.2031 120.844 57.8594C118.5 59.4844 116.109 60.5625 113.672 61.0938C110.359 61.75 105.562 62.0781 99.2812 62.0781H90.2344V88H76.3594ZM90.2344 30.9062V50.4062H97.8281C103.297 50.4062 106.953 50.0469 108.797 49.3281C110.641 48.6094 112.078 47.4844 113.109 45.9531C114.172 44.4219 114.703 42.6406 114.703 40.6094C114.703 38.1094 113.969 36.0469 112.5 34.4219C111.031 32.7969 109.172 31.7813 106.922 31.375C105.266 31.0625 101.938 30.9062 96.9375 30.9062H90.2344ZM155.859 88V30.9062H135.469V19.2812H190.078V30.9062H169.734V88H155.859ZM198.656 88V19.2812H212.531V88H198.656ZM225.984 88V19.2812H239.859V49.7969L267.891 19.2812H286.547L260.672 46.0469L287.953 88H270L251.109 55.75L239.859 67.2344V88H225.984ZM294.984 88V19.2812H315.75L328.219 66.1562L340.547 19.2812H361.359V88H348.469V33.9062L334.828 88H321.469L307.875 33.9062V88H294.984ZM437.109 88H422.016L416.016 72.3906H388.547L382.875 88H368.156L394.922 19.2812H409.594L437.109 88ZM411.562 60.8125L402.094 35.3125L392.812 60.8125H411.562Z" fill="#234AAF"/>
<path d="M9.12891 102.938H11.3906V115.02C11.3906 116.652 10.8984 117.93 9.91406 118.852C8.9375 119.773 7.63281 120.234 6 120.234C4.30469 120.234 2.98438 119.801 2.03906 118.934C1.09375 118.066 0.621094 116.852 0.621094 115.289H2.87109C2.87109 116.266 3.13672 117.027 3.66797 117.574C4.20703 118.121 4.98438 118.395 6 118.395C6.92969 118.395 7.67969 118.102 8.25 117.516C8.82812 116.93 9.12109 116.109 9.12891 115.055V102.938ZM17.2383 120H15.0703V102H17.2383V120ZM20.7656 118.863C20.7656 118.488 20.875 118.176 21.0938 117.926C21.3203 117.676 21.6562 117.551 22.1016 117.551C22.5469 117.551 22.8828 117.676 23.1094 117.926C23.3438 118.176 23.4609 118.488 23.4609 118.863C23.4609 119.223 23.3438 119.523 23.1094 119.766C22.8828 120.008 22.5469 120.129 22.1016 120.129C21.6562 120.129 21.3203 120.008 21.0938 119.766C20.875 119.523 20.7656 119.223 20.7656 118.863ZM39.5977 113.098H35.5898V120H33.3281V102.938H38.9766C40.8984 102.938 42.375 103.375 43.4062 104.25C44.4453 105.125 44.9648 106.398 44.9648 108.07C44.9648 109.133 44.6758 110.059 44.0977 110.848C43.5273 111.637 42.7305 112.227 41.707 112.617L45.7148 119.859V120H43.3008L39.5977 113.098ZM35.5898 111.258H39.0469C40.1641 111.258 41.0508 110.969 41.707 110.391C42.3711 109.812 42.7031 109.039 42.7031 108.07C42.7031 107.016 42.3867 106.207 41.7539 105.645C41.1289 105.082 40.2227 104.797 39.0352 104.789H35.5898V111.258ZM55.6172 120C55.4922 119.75 55.3906 119.305 55.3125 118.664C54.3047 119.711 53.1016 120.234 51.7031 120.234C50.4531 120.234 49.4258 119.883 48.6211 119.18C47.8242 118.469 47.4258 117.57 47.4258 116.484C47.4258 115.164 47.9258 114.141 48.9258 113.414C49.9336 112.68 51.3477 112.312 53.168 112.312H55.2773V111.316C55.2773 110.559 55.0508 109.957 54.5977 109.512C54.1445 109.059 53.4766 108.832 52.5938 108.832C51.8203 108.832 51.1719 109.027 50.6484 109.418C50.125 109.809 49.8633 110.281 49.8633 110.836H47.6836C47.6836 110.203 47.9062 109.594 48.3516 109.008C48.8047 108.414 49.4141 107.945 50.1797 107.602C50.9531 107.258 51.8008 107.086 52.7227 107.086C54.1836 107.086 55.3281 107.453 56.1562 108.188C56.9844 108.914 57.4141 109.918 57.4453 111.199V117.035C57.4453 118.199 57.5938 119.125 57.8906 119.812V120H55.6172ZM52.0195 118.348C52.6992 118.348 53.3438 118.172 53.9531 117.82C54.5625 117.469 55.0039 117.012 55.2773 116.449V113.848H53.5781C50.9219 113.848 49.5938 114.625 49.5938 116.18C49.5938 116.859 49.8203 117.391 50.2734 117.773C50.7266 118.156 51.3086 118.348 52.0195 118.348ZM64.8047 116.824L67.7578 107.32H70.0781L64.9805 121.957C64.1914 124.066 62.9375 125.121 61.2188 125.121L60.8086 125.086L60 124.934V123.176L60.5859 123.223C61.3203 123.223 61.8906 123.074 62.2969 122.777C62.7109 122.48 63.0508 121.938 63.3164 121.148L63.7969 119.859L59.2734 107.32H61.6406L64.8047 116.824ZM79.6641 120C79.5391 119.75 79.4375 119.305 79.3594 118.664C78.3516 119.711 77.1484 120.234 75.75 120.234C74.5 120.234 73.4727 119.883 72.668 119.18C71.8711 118.469 71.4727 117.57 71.4727 116.484C71.4727 115.164 71.9727 114.141 72.9727 113.414C73.9805 112.68 75.3945 112.312 77.2148 112.312H79.3242V111.316C79.3242 110.559 79.0977 109.957 78.6445 109.512C78.1914 109.059 77.5234 108.832 76.6406 108.832C75.8672 108.832 75.2188 109.027 74.6953 109.418C74.1719 109.809 73.9102 110.281 73.9102 110.836H71.7305C71.7305 110.203 71.9531 109.594 72.3984 109.008C72.8516 108.414 73.4609 107.945 74.2266 107.602C75 107.258 75.8477 107.086 76.7695 107.086C78.2305 107.086 79.375 107.453 80.2031 108.188C81.0312 108.914 81.4609 109.918 81.4922 111.199V117.035C81.4922 118.199 81.6406 119.125 81.9375 119.812V120H79.6641ZM76.0664 118.348C76.7461 118.348 77.3906 118.172 78 117.82C78.6094 117.469 79.0508 117.012 79.3242 116.449V113.848H77.625C74.9688 113.848 73.6406 114.625 73.6406 116.18C73.6406 116.859 73.8672 117.391 74.3203 117.773C74.7734 118.156 75.3555 118.348 76.0664 118.348ZM102.504 104.789H97.0195V120H94.7812V104.789H89.3086V102.938H102.504V104.789ZM111.188 120C111.062 119.75 110.961 119.305 110.883 118.664C109.875 119.711 108.672 120.234 107.273 120.234C106.023 120.234 104.996 119.883 104.191 119.18C103.395 118.469 102.996 117.57 102.996 116.484C102.996 115.164 103.496 114.141 104.496 113.414C105.504 112.68 106.918 112.312 108.738 112.312H110.848V111.316C110.848 110.559 110.621 109.957 110.168 109.512C109.715 109.059 109.047 108.832 108.164 108.832C107.391 108.832 106.742 109.027 106.219 109.418C105.695 109.809 105.434 110.281 105.434 110.836H103.254C103.254 110.203 103.477 109.594 103.922 109.008C104.375 108.414 104.984 107.945 105.75 107.602C106.523 107.258 107.371 107.086 108.293 107.086C109.754 107.086 110.898 107.453 111.727 108.188C112.555 108.914 112.984 109.918 113.016 111.199V117.035C113.016 118.199 113.164 119.125 113.461 119.812V120H111.188ZM107.59 118.348C108.27 118.348 108.914 118.172 109.523 117.82C110.133 117.469 110.574 117.012 110.848 116.449V113.848H109.148C106.492 113.848 105.164 114.625 105.164 116.18C105.164 116.859 105.391 117.391 105.844 117.773C106.297 118.156 106.879 118.348 107.59 118.348ZM118.465 107.32L118.535 108.914C119.504 107.695 120.77 107.086 122.332 107.086C125.012 107.086 126.363 108.598 126.387 111.621V120H124.219V111.609C124.211 110.695 124 110.02 123.586 109.582C123.18 109.145 122.543 108.926 121.676 108.926C120.973 108.926 120.355 109.113 119.824 109.488C119.293 109.863 118.879 110.355 118.582 110.965V120H116.414V107.32H118.465ZM131.895 107.32V121.465C131.895 123.902 130.789 125.121 128.578 125.121C128.102 125.121 127.66 125.051 127.254 124.91V123.176C127.504 123.238 127.832 123.27 128.238 123.27C128.723 123.27 129.09 123.137 129.34 122.871C129.598 122.613 129.727 122.16 129.727 121.512V107.32H131.895ZM129.504 103.957C129.504 103.613 129.609 103.32 129.82 103.078C130.039 102.828 130.355 102.703 130.77 102.703C131.191 102.703 131.512 102.824 131.73 103.066C131.949 103.309 132.059 103.605 132.059 103.957C132.059 104.309 131.949 104.602 131.73 104.836C131.512 105.07 131.191 105.188 130.77 105.188C130.348 105.188 130.031 105.07 129.82 104.836C129.609 104.602 129.504 104.309 129.504 103.957ZM143.227 118.746C142.383 119.738 141.145 120.234 139.512 120.234C138.16 120.234 137.129 119.844 136.418 119.062C135.715 118.273 135.359 117.109 135.352 115.57V107.32H137.52V115.512C137.52 117.434 138.301 118.395 139.863 118.395C141.52 118.395 142.621 117.777 143.168 116.543V107.32H145.336V120H143.273L143.227 118.746ZM150.691 107.32L150.762 108.914C151.73 107.695 152.996 107.086 154.559 107.086C157.238 107.086 158.59 108.598 158.613 111.621V120H156.445V111.609C156.438 110.695 156.227 110.02 155.812 109.582C155.406 109.145 154.77 108.926 153.902 108.926C153.199 108.926 152.582 109.113 152.051 109.488C151.52 109.863 151.105 110.355 150.809 110.965V120H148.641V107.32H150.691ZM161.367 113.555C161.367 111.578 161.824 110.008 162.738 108.844C163.652 107.672 164.863 107.086 166.371 107.086C167.918 107.086 169.125 107.633 169.992 108.727L170.098 107.32H172.078V119.695C172.078 121.336 171.59 122.629 170.613 123.574C169.645 124.52 168.34 124.992 166.699 124.992C165.785 124.992 164.891 124.797 164.016 124.406C163.141 124.016 162.473 123.48 162.012 122.801L163.137 121.5C164.066 122.648 165.203 123.223 166.547 123.223C167.602 123.223 168.422 122.926 169.008 122.332C169.602 121.738 169.898 120.902 169.898 119.824V118.734C169.031 119.734 167.848 120.234 166.348 120.234C164.863 120.234 163.66 119.637 162.738 118.441C161.824 117.246 161.367 115.617 161.367 113.555ZM163.547 113.801C163.547 115.23 163.84 116.355 164.426 117.176C165.012 117.988 165.832 118.395 166.887 118.395C168.254 118.395 169.258 117.773 169.898 116.531V110.742C169.234 109.531 168.238 108.926 166.91 108.926C165.855 108.926 165.031 109.336 164.438 110.156C163.844 110.977 163.547 112.191 163.547 113.801ZM183.902 113.32V120H181.652V102.938H187.945C189.812 102.938 191.273 103.414 192.328 104.367C193.391 105.32 193.922 106.582 193.922 108.152C193.922 109.809 193.402 111.086 192.363 111.984C191.332 112.875 189.852 113.32 187.922 113.32H183.902ZM183.902 111.48H187.945C189.148 111.48 190.07 111.199 190.711 110.637C191.352 110.066 191.672 109.246 191.672 108.176C191.672 107.16 191.352 106.348 190.711 105.738C190.07 105.129 189.191 104.812 188.074 104.789H183.902V111.48ZM198.809 120H196.641V107.32H198.809V120ZM196.465 103.957C196.465 103.605 196.57 103.309 196.781 103.066C197 102.824 197.32 102.703 197.742 102.703C198.164 102.703 198.484 102.824 198.703 103.066C198.922 103.309 199.031 103.605 199.031 103.957C199.031 104.309 198.922 104.602 198.703 104.836C198.484 105.07 198.164 105.188 197.742 105.188C197.32 105.188 197 105.07 196.781 104.836C196.57 104.602 196.465 104.309 196.465 103.957ZM204.34 107.32L204.41 108.914C205.379 107.695 206.645 107.086 208.207 107.086C210.887 107.086 212.238 108.598 212.262 111.621V120H210.094V111.609C210.086 110.695 209.875 110.02 209.461 109.582C209.055 109.145 208.418 108.926 207.551 108.926C206.848 108.926 206.23 109.113 205.699 109.488C205.168 109.863 204.754 110.355 204.457 110.965V120H202.289V107.32H204.34ZM223.359 120C223.234 119.75 223.133 119.305 223.055 118.664C222.047 119.711 220.844 120.234 219.445 120.234C218.195 120.234 217.168 119.883 216.363 119.18C215.566 118.469 215.168 117.57 215.168 116.484C215.168 115.164 215.668 114.141 216.668 113.414C217.676 112.68 219.09 112.312 220.91 112.312H223.02V111.316C223.02 110.559 222.793 109.957 222.34 109.512C221.887 109.059 221.219 108.832 220.336 108.832C219.562 108.832 218.914 109.027 218.391 109.418C217.867 109.809 217.605 110.281 217.605 110.836H215.426C215.426 110.203 215.648 109.594 216.094 109.008C216.547 108.414 217.156 107.945 217.922 107.602C218.695 107.258 219.543 107.086 220.465 107.086C221.926 107.086 223.07 107.453 223.898 108.188C224.727 108.914 225.156 109.918 225.188 111.199V117.035C225.188 118.199 225.336 119.125 225.633 119.812V120H223.359ZM219.762 118.348C220.441 118.348 221.086 118.172 221.695 117.82C222.305 117.469 222.746 117.012 223.02 116.449V113.848H221.32C218.664 113.848 217.336 114.625 217.336 116.18C217.336 116.859 217.562 117.391 218.016 117.773C218.469 118.156 219.051 118.348 219.762 118.348ZM230.637 107.32L230.707 108.914C231.676 107.695 232.941 107.086 234.504 107.086C237.184 107.086 238.535 108.598 238.559 111.621V120H236.391V111.609C236.383 110.695 236.172 110.02 235.758 109.582C235.352 109.145 234.715 108.926 233.848 108.926C233.145 108.926 232.527 109.113 231.996 109.488C231.465 109.863 231.051 110.355 230.754 110.965V120H228.586V107.32H230.637ZM241.312 113.555C241.312 111.578 241.77 110.008 242.684 108.844C243.598 107.672 244.809 107.086 246.316 107.086C247.863 107.086 249.07 107.633 249.938 108.727L250.043 107.32H252.023V119.695C252.023 121.336 251.535 122.629 250.559 123.574C249.59 124.52 248.285 124.992 246.645 124.992C245.73 124.992 244.836 124.797 243.961 124.406C243.086 124.016 242.418 123.48 241.957 122.801L243.082 121.5C244.012 122.648 245.148 123.223 246.492 123.223C247.547 123.223 248.367 122.926 248.953 122.332C249.547 121.738 249.844 120.902 249.844 119.824V118.734C248.977 119.734 247.793 120.234 246.293 120.234C244.809 120.234 243.605 119.637 242.684 118.441C241.77 117.246 241.312 115.617 241.312 113.555ZM243.492 113.801C243.492 115.23 243.785 116.355 244.371 117.176C244.957 117.988 245.777 118.395 246.832 118.395C248.199 118.395 249.203 117.773 249.844 116.531V110.742C249.18 109.531 248.184 108.926 246.855 108.926C245.801 108.926 244.977 109.336 244.383 110.156C243.789 110.977 243.492 112.191 243.492 113.801ZM274.711 120H272.449L263.859 106.852V120H261.598V102.938H263.859L272.473 116.145V102.938H274.711V120ZM291.832 112.02C291.832 113.691 291.551 115.152 290.988 116.402C290.426 117.645 289.629 118.594 288.598 119.25C287.566 119.906 286.363 120.234 284.988 120.234C283.645 120.234 282.453 119.906 281.414 119.25C280.375 118.586 279.566 117.645 278.988 116.426C278.418 115.199 278.125 113.781 278.109 112.172V110.941C278.109 109.301 278.395 107.852 278.965 106.594C279.535 105.336 280.34 104.375 281.379 103.711C282.426 103.039 283.621 102.703 284.965 102.703C286.332 102.703 287.535 103.035 288.574 103.699C289.621 104.355 290.426 105.312 290.988 106.57C291.551 107.82 291.832 109.277 291.832 110.941V112.02ZM289.594 110.918C289.594 108.895 289.188 107.344 288.375 106.266C287.562 105.18 286.426 104.637 284.965 104.637C283.543 104.637 282.422 105.18 281.602 106.266C280.789 107.344 280.371 108.844 280.348 110.766V112.02C280.348 113.98 280.758 115.523 281.578 116.648C282.406 117.766 283.543 118.324 284.988 118.324C286.441 118.324 287.566 117.797 288.363 116.742C289.16 115.68 289.57 114.16 289.594 112.184V110.918ZM293.719 118.863C293.719 118.488 293.828 118.176 294.047 117.926C294.273 117.676 294.609 117.551 295.055 117.551C295.5 117.551 295.836 117.676 296.062 117.926C296.297 118.176 296.414 118.488 296.414 118.863C296.414 119.223 296.297 119.523 296.062 119.766C295.836 120.008 295.5 120.129 295.055 120.129C294.609 120.129 294.273 120.008 294.047 119.766C293.828 119.523 293.719 119.223 293.719 118.863ZM312.855 120H310.676V105.551L306.305 107.156V105.188L312.516 102.855H312.855V120ZM330.387 120H319.207V118.441L325.113 111.879C325.988 110.887 326.59 110.082 326.918 109.465C327.254 108.84 327.422 108.195 327.422 107.531C327.422 106.641 327.152 105.91 326.613 105.34C326.074 104.77 325.355 104.484 324.457 104.484C323.379 104.484 322.539 104.793 321.938 105.41C321.344 106.02 321.047 106.871 321.047 107.965H318.879C318.879 106.395 319.383 105.125 320.391 104.156C321.406 103.188 322.762 102.703 324.457 102.703C326.043 102.703 327.297 103.121 328.219 103.957C329.141 104.785 329.602 105.891 329.602 107.273C329.602 108.953 328.531 110.953 326.391 113.273L321.82 118.23H330.387V120Z" fill="#234AAF"/>
<path d="M3.17285 141.99V147H1.48535V134.203H6.20508C7.60547 134.203 8.70117 134.561 9.49219 135.275C10.2891 135.99 10.6875 136.937 10.6875 138.114C10.6875 139.356 10.2979 140.314 9.51855 140.988C8.74512 141.656 7.63477 141.99 6.1875 141.99H3.17285ZM3.17285 140.61H6.20508C7.10742 140.61 7.79883 140.399 8.2793 139.978C8.75977 139.55 9 138.935 9 138.132C9 137.37 8.75977 136.761 8.2793 136.304C7.79883 135.847 7.13965 135.609 6.30176 135.592H3.17285V140.61ZM14.2119 138.642C14.9326 137.757 15.8701 137.314 17.0244 137.314C19.0342 137.314 20.0479 138.448 20.0654 140.716V147H18.4395V140.707C18.4336 140.021 18.2754 139.515 17.9648 139.187C17.6602 138.858 17.1826 138.694 16.5322 138.694C16.0049 138.694 15.542 138.835 15.1436 139.116C14.7451 139.397 14.4346 139.767 14.2119 140.224V147H12.5859V133.5H14.2119V138.642ZM22.0693 142.157C22.0693 141.226 22.251 140.388 22.6143 139.644C22.9834 138.899 23.4932 138.325 24.1436 137.921C24.7998 137.517 25.5469 137.314 26.3848 137.314C27.6797 137.314 28.7256 137.763 29.5225 138.659C30.3252 139.556 30.7266 140.748 30.7266 142.236V142.351C30.7266 143.276 30.5479 144.108 30.1904 144.847C29.8389 145.579 29.332 146.15 28.6699 146.561C28.0137 146.971 27.2578 147.176 26.4023 147.176C25.1133 147.176 24.0674 146.728 23.2646 145.831C22.4678 144.935 22.0693 143.748 22.0693 142.271V142.157ZM23.7041 142.351C23.7041 143.405 23.9473 144.252 24.4336 144.891C24.9258 145.529 25.582 145.849 26.4023 145.849C27.2285 145.849 27.8848 145.526 28.3711 144.882C28.8574 144.231 29.1006 143.323 29.1006 142.157C29.1006 141.114 28.8516 140.271 28.3535 139.626C27.8613 138.976 27.2051 138.65 26.3848 138.65C25.582 138.65 24.9346 138.97 24.4424 139.608C23.9502 140.247 23.7041 141.161 23.7041 142.351ZM34.3037 137.49L34.3564 138.686C35.083 137.771 36.0322 137.314 37.2041 137.314C39.2139 137.314 40.2275 138.448 40.2451 140.716V147H38.6191V140.707C38.6133 140.021 38.4551 139.515 38.1445 139.187C37.8398 138.858 37.3623 138.694 36.7119 138.694C36.1846 138.694 35.7217 138.835 35.3232 139.116C34.9248 139.397 34.6143 139.767 34.3916 140.224V147H32.7656V137.49H34.3037ZM46.6436 147.176C45.3545 147.176 44.3057 146.754 43.4971 145.91C42.6885 145.061 42.2842 143.927 42.2842 142.509V142.21C42.2842 141.267 42.4629 140.426 42.8203 139.688C43.1836 138.943 43.6875 138.363 44.332 137.947C44.9824 137.525 45.6855 137.314 46.4414 137.314C47.6777 137.314 48.6387 137.722 49.3242 138.536C50.0098 139.351 50.3525 140.517 50.3525 142.034V142.711H43.9102C43.9336 143.648 44.2061 144.407 44.7275 144.987C45.2549 145.562 45.9229 145.849 46.7314 145.849C47.3057 145.849 47.792 145.731 48.1904 145.497C48.5889 145.263 48.9375 144.952 49.2363 144.565L50.2295 145.339C49.4326 146.563 48.2373 147.176 46.6436 147.176ZM46.4414 138.65C45.7852 138.65 45.2344 138.891 44.7891 139.371C44.3438 139.846 44.0684 140.514 43.9629 141.375H48.7266V141.252C48.6797 140.426 48.457 139.787 48.0586 139.336C47.6602 138.879 47.1211 138.65 46.4414 138.65ZM52.1895 146.147C52.1895 145.866 52.2715 145.632 52.4355 145.444C52.6055 145.257 52.8574 145.163 53.1914 145.163C53.5254 145.163 53.7773 145.257 53.9473 145.444C54.123 145.632 54.2109 145.866 54.2109 146.147C54.2109 146.417 54.123 146.643 53.9473 146.824C53.7773 147.006 53.5254 147.097 53.1914 147.097C52.8574 147.097 52.6055 147.006 52.4355 146.824C52.2715 146.643 52.1895 146.417 52.1895 146.147ZM52.1982 138.387C52.1982 138.105 52.2803 137.871 52.4443 137.684C52.6143 137.496 52.8662 137.402 53.2002 137.402C53.5342 137.402 53.7861 137.496 53.9561 137.684C54.1318 137.871 54.2197 138.105 54.2197 138.387C54.2197 138.656 54.1318 138.882 53.9561 139.063C53.7861 139.245 53.5342 139.336 53.2002 139.336C52.8662 139.336 52.6143 139.245 52.4443 139.063C52.2803 138.882 52.1982 138.656 52.1982 138.387ZM68.9238 141.542C68.9238 143.446 68.5986 144.861 67.9482 145.787C67.2979 146.713 66.2812 147.176 64.8984 147.176C63.5332 147.176 62.5225 146.725 61.8662 145.822C61.21 144.914 60.8701 143.561 60.8467 141.762V139.591C60.8467 137.71 61.1719 136.312 61.8223 135.398C62.4727 134.484 63.4922 134.027 64.8809 134.027C66.2578 134.027 67.2715 134.47 67.9219 135.354C68.5723 136.233 68.9062 137.593 68.9238 139.433V141.542ZM67.2979 139.318C67.2979 137.941 67.1045 136.939 66.7178 136.312C66.3311 135.68 65.7188 135.363 64.8809 135.363C64.0488 135.363 63.4424 135.677 63.0615 136.304C62.6807 136.931 62.4844 137.895 62.4727 139.195V141.797C62.4727 143.18 62.6719 144.202 63.0703 144.864C63.4746 145.521 64.084 145.849 64.8984 145.849C65.7012 145.849 66.2959 145.538 66.6826 144.917C67.0752 144.296 67.2803 143.317 67.2979 141.981V139.318ZM78.7676 137.543C78.7676 138.182 78.5977 138.75 78.2578 139.248C77.9238 139.746 77.4697 140.136 76.8955 140.417C77.5635 140.704 78.0908 141.123 78.4775 141.674C78.8701 142.225 79.0664 142.849 79.0664 143.546C79.0664 144.653 78.6914 145.535 77.9414 146.191C77.1973 146.848 76.2158 147.176 74.9971 147.176C73.7666 147.176 72.7793 146.848 72.0352 146.191C71.2969 145.529 70.9277 144.647 70.9277 143.546C70.9277 142.854 71.1152 142.23 71.4902 141.674C71.8711 141.117 72.3955 140.695 73.0635 140.408C72.4951 140.127 72.0469 139.737 71.7188 139.239C71.3906 138.741 71.2266 138.176 71.2266 137.543C71.2266 136.465 71.5723 135.609 72.2637 134.977C72.9551 134.344 73.8662 134.027 74.9971 134.027C76.1221 134.027 77.0303 134.344 77.7217 134.977C78.4189 135.609 78.7676 136.465 78.7676 137.543ZM77.4404 143.511C77.4404 142.796 77.2119 142.213 76.7549 141.762C76.3037 141.311 75.7119 141.085 74.9795 141.085C74.2471 141.085 73.6582 141.308 73.2129 141.753C72.7734 142.198 72.5537 142.784 72.5537 143.511C72.5537 144.237 72.7676 144.809 73.1953 145.225C73.6289 145.641 74.2295 145.849 74.9971 145.849C75.7588 145.849 76.3564 145.641 76.79 145.225C77.2236 144.803 77.4404 144.231 77.4404 143.511ZM74.9971 135.363C74.3584 135.363 73.8398 135.562 73.4414 135.961C73.0488 136.354 72.8525 136.89 72.8525 137.569C72.8525 138.22 73.0459 138.747 73.4326 139.151C73.8252 139.55 74.3467 139.749 74.9971 139.749C75.6475 139.749 76.166 139.55 76.5527 139.151C76.9453 138.747 77.1416 138.22 77.1416 137.569C77.1416 136.919 76.9395 136.389 76.5352 135.979C76.1309 135.568 75.6182 135.363 74.9971 135.363ZM86.458 147H84.8232V136.163L81.5449 137.367V135.891L86.2031 134.142H86.458V147ZM99.6064 147H91.2217V145.831L95.6514 140.909C96.3076 140.165 96.7588 139.562 97.0049 139.099C97.2568 138.63 97.3828 138.146 97.3828 137.648C97.3828 136.98 97.1807 136.433 96.7764 136.005C96.3721 135.577 95.833 135.363 95.1592 135.363C94.3506 135.363 93.7207 135.595 93.2695 136.058C92.8242 136.515 92.6016 137.153 92.6016 137.974H90.9756C90.9756 136.796 91.3535 135.844 92.1094 135.117C92.8711 134.391 93.8877 134.027 95.1592 134.027C96.3486 134.027 97.2891 134.341 97.9805 134.968C98.6719 135.589 99.0176 136.418 99.0176 137.455C99.0176 138.715 98.2148 140.215 96.6094 141.955L93.1816 145.673H99.6064V147ZM103.693 139.811H104.915C105.683 139.799 106.286 139.597 106.726 139.204C107.165 138.812 107.385 138.281 107.385 137.613C107.385 136.113 106.638 135.363 105.144 135.363C104.44 135.363 103.878 135.565 103.456 135.97C103.04 136.368 102.832 136.898 102.832 137.561H101.206C101.206 136.547 101.575 135.706 102.313 135.038C103.058 134.364 104.001 134.027 105.144 134.027C106.351 134.027 107.297 134.347 107.982 134.985C108.668 135.624 109.011 136.512 109.011 137.648C109.011 138.205 108.829 138.744 108.466 139.266C108.108 139.787 107.619 140.177 106.998 140.435C107.701 140.657 108.243 141.026 108.624 141.542C109.011 142.058 109.204 142.688 109.204 143.432C109.204 144.58 108.829 145.491 108.079 146.165C107.329 146.839 106.354 147.176 105.152 147.176C103.951 147.176 102.973 146.851 102.217 146.2C101.467 145.55 101.092 144.691 101.092 143.625H102.727C102.727 144.299 102.946 144.838 103.386 145.242C103.825 145.646 104.414 145.849 105.152 145.849C105.938 145.849 106.538 145.644 106.954 145.233C107.37 144.823 107.578 144.234 107.578 143.467C107.578 142.723 107.35 142.151 106.893 141.753C106.436 141.354 105.776 141.149 104.915 141.138H103.693V139.811ZM119.461 141.542C119.461 143.446 119.136 144.861 118.485 145.787C117.835 146.713 116.818 147.176 115.436 147.176C114.07 147.176 113.06 146.725 112.403 145.822C111.747 144.914 111.407 143.561 111.384 141.762V139.591C111.384 137.71 111.709 136.312 112.359 135.398C113.01 134.484 114.029 134.027 115.418 134.027C116.795 134.027 117.809 134.47 118.459 135.354C119.109 136.233 119.443 137.593 119.461 139.433V141.542ZM117.835 139.318C117.835 137.941 117.642 136.939 117.255 136.312C116.868 135.68 116.256 135.363 115.418 135.363C114.586 135.363 113.979 135.677 113.599 136.304C113.218 136.931 113.021 137.895 113.01 139.195V141.797C113.01 143.18 113.209 144.202 113.607 144.864C114.012 145.521 114.621 145.849 115.436 145.849C116.238 145.849 116.833 145.538 117.22 144.917C117.612 144.296 117.817 143.317 117.835 141.981V139.318ZM126.888 147H125.253V136.163L121.975 137.367V135.891L126.633 134.142H126.888V147ZM139.676 141.542C139.676 143.446 139.351 144.861 138.7 145.787C138.05 146.713 137.033 147.176 135.65 147.176C134.285 147.176 133.274 146.725 132.618 145.822C131.962 144.914 131.622 143.561 131.599 141.762V139.591C131.599 137.71 131.924 136.312 132.574 135.398C133.225 134.484 134.244 134.027 135.633 134.027C137.01 134.027 138.023 134.47 138.674 135.354C139.324 136.233 139.658 137.593 139.676 139.433V141.542ZM138.05 139.318C138.05 137.941 137.856 136.939 137.47 136.312C137.083 135.68 136.471 135.363 135.633 135.363C134.801 135.363 134.194 135.677 133.813 136.304C133.433 136.931 133.236 137.895 133.225 139.195V141.797C133.225 143.18 133.424 144.202 133.822 144.864C134.227 145.521 134.836 145.849 135.65 145.849C136.453 145.849 137.048 145.538 137.435 144.917C137.827 144.296 138.032 143.317 138.05 141.981V139.318ZM147.103 147H145.468V136.163L142.189 137.367V135.891L146.848 134.142H147.103V147ZM157.21 147H155.575V136.163L152.297 137.367V135.891L156.955 134.142H157.21V147ZM167.317 147H165.683V136.163L162.404 137.367V135.891L167.062 134.142H167.317V147ZM177.425 147H175.79V136.163L172.512 137.367V135.891L177.17 134.142H177.425V147ZM182.391 146.147C182.391 145.866 182.473 145.632 182.637 145.444C182.807 145.257 183.059 145.163 183.393 145.163C183.727 145.163 183.979 145.257 184.148 145.444C184.324 145.632 184.412 145.866 184.412 146.147C184.412 146.417 184.324 146.643 184.148 146.824C183.979 147.006 183.727 147.097 183.393 147.097C183.059 147.097 182.807 147.006 182.637 146.824C182.473 146.643 182.391 146.417 182.391 146.147Z" fill="#234AAF"/>
<path d="M200.719 141.085H195.173V145.62H201.615V147H193.485V134.203H201.527V135.592H195.173V139.705H200.719V141.085ZM204.99 137.49L205.034 138.545C205.731 137.725 206.672 137.314 207.855 137.314C209.186 137.314 210.091 137.824 210.571 138.844C210.888 138.387 211.298 138.018 211.802 137.736C212.312 137.455 212.912 137.314 213.604 137.314C215.689 137.314 216.75 138.419 216.785 140.628V147H215.159V140.725C215.159 140.045 215.004 139.538 214.693 139.204C214.383 138.864 213.861 138.694 213.129 138.694C212.525 138.694 212.024 138.876 211.626 139.239C211.228 139.597 210.996 140.08 210.932 140.689V147H209.297V140.769C209.297 139.386 208.62 138.694 207.267 138.694C206.2 138.694 205.471 139.148 205.078 140.057V147H203.452V137.49H204.99ZM225.117 147C225.023 146.812 224.947 146.479 224.889 145.998C224.133 146.783 223.23 147.176 222.182 147.176C221.244 147.176 220.474 146.912 219.87 146.385C219.272 145.852 218.974 145.178 218.974 144.363C218.974 143.373 219.349 142.605 220.099 142.061C220.854 141.51 221.915 141.234 223.28 141.234H224.862V140.487C224.862 139.919 224.692 139.468 224.353 139.134C224.013 138.794 223.512 138.624 222.85 138.624C222.27 138.624 221.783 138.771 221.391 139.063C220.998 139.356 220.802 139.711 220.802 140.127H219.167C219.167 139.652 219.334 139.195 219.668 138.756C220.008 138.311 220.465 137.959 221.039 137.701C221.619 137.443 222.255 137.314 222.946 137.314C224.042 137.314 224.9 137.59 225.521 138.141C226.143 138.686 226.465 139.438 226.488 140.399V144.776C226.488 145.649 226.6 146.344 226.822 146.859V147H225.117ZM222.419 145.761C222.929 145.761 223.412 145.629 223.869 145.365C224.326 145.102 224.657 144.759 224.862 144.337V142.386H223.588C221.596 142.386 220.6 142.969 220.6 144.135C220.6 144.645 220.77 145.043 221.109 145.33C221.449 145.617 221.886 145.761 222.419 145.761ZM230.804 147H229.178V137.49H230.804V147ZM229.046 134.968C229.046 134.704 229.125 134.481 229.283 134.3C229.447 134.118 229.688 134.027 230.004 134.027C230.32 134.027 230.561 134.118 230.725 134.3C230.889 134.481 230.971 134.704 230.971 134.968C230.971 135.231 230.889 135.451 230.725 135.627C230.561 135.803 230.32 135.891 230.004 135.891C229.688 135.891 229.447 135.803 229.283 135.627C229.125 135.451 229.046 135.231 229.046 134.968ZM235.181 147H233.555V133.5H235.181V147ZM237.738 146.147C237.738 145.866 237.82 145.632 237.984 145.444C238.154 145.257 238.406 145.163 238.74 145.163C239.074 145.163 239.326 145.257 239.496 145.444C239.672 145.632 239.76 145.866 239.76 146.147C239.76 146.417 239.672 146.643 239.496 146.824C239.326 147.006 239.074 147.097 238.74 147.097C238.406 147.097 238.154 147.006 237.984 146.824C237.82 146.643 237.738 146.417 237.738 146.147ZM237.747 138.387C237.747 138.105 237.829 137.871 237.993 137.684C238.163 137.496 238.415 137.402 238.749 137.402C239.083 137.402 239.335 137.496 239.505 137.684C239.681 137.871 239.769 138.105 239.769 138.387C239.769 138.656 239.681 138.882 239.505 139.063C239.335 139.245 239.083 139.336 238.749 139.336C238.415 139.336 238.163 139.245 237.993 139.063C237.829 138.882 237.747 138.656 237.747 138.387ZM252.486 147C252.393 146.812 252.316 146.479 252.258 145.998C251.502 146.783 250.6 147.176 249.551 147.176C248.613 147.176 247.843 146.912 247.239 146.385C246.642 145.852 246.343 145.178 246.343 144.363C246.343 143.373 246.718 142.605 247.468 142.061C248.224 141.51 249.284 141.234 250.649 141.234H252.231V140.487C252.231 139.919 252.062 139.468 251.722 139.134C251.382 138.794 250.881 138.624 250.219 138.624C249.639 138.624 249.152 138.771 248.76 139.063C248.367 139.356 248.171 139.711 248.171 140.127H246.536C246.536 139.652 246.703 139.195 247.037 138.756C247.377 138.311 247.834 137.959 248.408 137.701C248.988 137.443 249.624 137.314 250.315 137.314C251.411 137.314 252.27 137.59 252.891 138.141C253.512 138.686 253.834 139.438 253.857 140.399V144.776C253.857 145.649 253.969 146.344 254.191 146.859V147H252.486ZM249.788 145.761C250.298 145.761 250.781 145.629 251.238 145.365C251.695 145.102 252.026 144.759 252.231 144.337V142.386H250.957C248.965 142.386 247.969 142.969 247.969 144.135C247.969 144.645 248.139 145.043 248.479 145.33C248.818 145.617 249.255 145.761 249.788 145.761ZM264.439 142.351C264.439 143.798 264.108 144.964 263.446 145.849C262.784 146.733 261.888 147.176 260.757 147.176C259.603 147.176 258.694 146.81 258.032 146.077V150.656H256.406V137.49H257.892L257.971 138.545C258.633 137.725 259.553 137.314 260.73 137.314C261.873 137.314 262.775 137.745 263.438 138.606C264.105 139.468 264.439 140.666 264.439 142.201V142.351ZM262.813 142.166C262.813 141.094 262.585 140.247 262.128 139.626C261.671 139.005 261.044 138.694 260.247 138.694C259.263 138.694 258.524 139.131 258.032 140.004V144.548C258.519 145.415 259.263 145.849 260.265 145.849C261.044 145.849 261.662 145.541 262.119 144.926C262.582 144.305 262.813 143.385 262.813 142.166ZM268.72 135.188V137.49H270.495V138.747H268.72V144.645C268.72 145.025 268.799 145.312 268.957 145.506C269.115 145.693 269.385 145.787 269.766 145.787C269.953 145.787 270.211 145.752 270.539 145.682V147C270.111 147.117 269.695 147.176 269.291 147.176C268.564 147.176 268.017 146.956 267.647 146.517C267.278 146.077 267.094 145.453 267.094 144.645V138.747H265.362V137.49H267.094V135.188H268.72ZM274.169 147H272.543V137.49H274.169V147ZM272.411 134.968C272.411 134.704 272.49 134.481 272.648 134.3C272.812 134.118 273.053 134.027 273.369 134.027C273.686 134.027 273.926 134.118 274.09 134.3C274.254 134.481 274.336 134.704 274.336 134.968C274.336 135.231 274.254 135.451 274.09 135.627C273.926 135.803 273.686 135.891 273.369 135.891C273.053 135.891 272.812 135.803 272.648 135.627C272.49 135.451 272.411 135.231 272.411 134.968ZM279.434 142.597L278.414 143.66V147H276.788V133.5H278.414V141.665L279.284 140.619L282.246 137.49H284.224L280.523 141.463L284.654 147H282.747L279.434 142.597ZM287.432 137.49L287.476 138.545C288.173 137.725 289.113 137.314 290.297 137.314C291.627 137.314 292.532 137.824 293.013 138.844C293.329 138.387 293.739 138.018 294.243 137.736C294.753 137.455 295.354 137.314 296.045 137.314C298.131 137.314 299.191 138.419 299.227 140.628V147H297.601V140.725C297.601 140.045 297.445 139.538 297.135 139.204C296.824 138.864 296.303 138.694 295.57 138.694C294.967 138.694 294.466 138.876 294.067 139.239C293.669 139.597 293.438 140.08 293.373 140.689V147H291.738V140.769C291.738 139.386 291.062 138.694 289.708 138.694C288.642 138.694 287.912 139.148 287.52 140.057V147H285.894V137.49H287.432ZM307.559 147C307.465 146.812 307.389 146.479 307.33 145.998C306.574 146.783 305.672 147.176 304.623 147.176C303.686 147.176 302.915 146.912 302.312 146.385C301.714 145.852 301.415 145.178 301.415 144.363C301.415 143.373 301.79 142.605 302.54 142.061C303.296 141.51 304.356 141.234 305.722 141.234H307.304V140.487C307.304 139.919 307.134 139.468 306.794 139.134C306.454 138.794 305.953 138.624 305.291 138.624C304.711 138.624 304.225 138.771 303.832 139.063C303.439 139.356 303.243 139.711 303.243 140.127H301.608C301.608 139.652 301.775 139.195 302.109 138.756C302.449 138.311 302.906 137.959 303.48 137.701C304.061 137.443 304.696 137.314 305.388 137.314C306.483 137.314 307.342 137.59 307.963 138.141C308.584 138.686 308.906 139.438 308.93 140.399V144.776C308.93 145.649 309.041 146.344 309.264 146.859V147H307.559ZM304.86 145.761C305.37 145.761 305.854 145.629 306.311 145.365C306.768 145.102 307.099 144.759 307.304 144.337V142.386H306.029C304.037 142.386 303.041 142.969 303.041 144.135C303.041 144.645 303.211 145.043 303.551 145.33C303.891 145.617 304.327 145.761 304.86 145.761ZM325.523 142.588C325.453 144.006 325.102 145.125 324.469 145.945C323.836 146.766 322.989 147.176 321.929 147.176C320.833 147.176 320.13 146.684 319.819 145.699C319.503 146.197 319.14 146.569 318.729 146.815C318.325 147.056 317.906 147.176 317.473 147.176C316.641 147.176 316.011 146.836 315.583 146.156C315.155 145.477 314.997 144.536 315.108 143.335C315.196 142.368 315.416 141.507 315.768 140.751C316.125 139.989 316.582 139.392 317.139 138.958C317.701 138.524 318.29 138.308 318.905 138.308C319.38 138.308 319.805 138.372 320.18 138.501C320.555 138.624 320.977 138.87 321.445 139.239L320.988 144.108C320.877 145.462 321.252 146.139 322.113 146.139C322.775 146.139 323.312 145.811 323.722 145.154C324.132 144.498 324.354 143.643 324.39 142.588C324.501 140.309 324.076 138.571 323.115 137.376C322.16 136.181 320.704 135.583 318.747 135.583C317.569 135.583 316.523 135.876 315.609 136.462C314.695 137.042 313.975 137.883 313.447 138.984C312.92 140.086 312.624 141.357 312.56 142.799C312.489 144.252 312.665 145.515 313.087 146.587C313.509 147.653 314.15 148.468 315.012 149.03C315.879 149.599 316.925 149.883 318.149 149.883C318.677 149.883 319.204 149.818 319.731 149.689C320.265 149.561 320.707 149.394 321.059 149.188L321.384 150.199C321.021 150.428 320.537 150.615 319.934 150.762C319.336 150.908 318.729 150.981 318.114 150.981C316.649 150.981 315.39 150.65 314.335 149.988C313.28 149.332 312.489 148.383 311.962 147.141C311.44 145.904 311.215 144.457 311.285 142.799C311.355 141.188 311.716 139.74 312.366 138.457C313.017 137.168 313.898 136.175 315.012 135.478C316.125 134.774 317.382 134.423 318.782 134.423C320.241 134.423 321.492 134.751 322.535 135.407C323.578 136.063 324.354 137.01 324.864 138.246C325.374 139.482 325.594 140.93 325.523 142.588ZM316.506 143.335C316.424 144.167 316.5 144.806 316.734 145.251C316.975 145.696 317.353 145.919 317.868 145.919C318.22 145.919 318.557 145.77 318.879 145.471C319.207 145.172 319.477 144.744 319.688 144.188L319.696 144.108L320.101 139.688C319.772 139.518 319.421 139.433 319.046 139.433C318.36 139.433 317.792 139.781 317.341 140.479C316.896 141.176 316.617 142.128 316.506 143.335ZM327.264 142.166C327.264 140.684 327.606 139.506 328.292 138.633C328.978 137.754 329.886 137.314 331.017 137.314C332.177 137.314 333.082 137.725 333.732 138.545L333.812 137.49H335.297V146.771C335.297 148.002 334.931 148.972 334.198 149.681C333.472 150.39 332.493 150.744 331.263 150.744C330.577 150.744 329.906 150.598 329.25 150.305C328.594 150.012 328.093 149.61 327.747 149.101L328.591 148.125C329.288 148.986 330.141 149.417 331.148 149.417C331.939 149.417 332.555 149.194 332.994 148.749C333.439 148.304 333.662 147.677 333.662 146.868V146.051C333.012 146.801 332.124 147.176 330.999 147.176C329.886 147.176 328.983 146.728 328.292 145.831C327.606 144.935 327.264 143.713 327.264 142.166ZM328.898 142.351C328.898 143.423 329.118 144.267 329.558 144.882C329.997 145.491 330.612 145.796 331.403 145.796C332.429 145.796 333.182 145.33 333.662 144.398V140.057C333.164 139.148 332.417 138.694 331.421 138.694C330.63 138.694 330.012 139.002 329.566 139.617C329.121 140.232 328.898 141.144 328.898 142.351ZM339.287 137.49L339.331 138.545C340.028 137.725 340.969 137.314 342.152 137.314C343.482 137.314 344.388 137.824 344.868 138.844C345.185 138.387 345.595 138.018 346.099 137.736C346.608 137.455 347.209 137.314 347.9 137.314C349.986 137.314 351.047 138.419 351.082 140.628V147H349.456V140.725C349.456 140.045 349.301 139.538 348.99 139.204C348.68 138.864 348.158 138.694 347.426 138.694C346.822 138.694 346.321 138.876 345.923 139.239C345.524 139.597 345.293 140.08 345.229 140.689V147H343.594V140.769C343.594 139.386 342.917 138.694 341.563 138.694C340.497 138.694 339.768 139.148 339.375 140.057V147H337.749V137.49H339.287ZM359.414 147C359.32 146.812 359.244 146.479 359.186 145.998C358.43 146.783 357.527 147.176 356.479 147.176C355.541 147.176 354.771 146.912 354.167 146.385C353.569 145.852 353.271 145.178 353.271 144.363C353.271 143.373 353.646 142.605 354.396 142.061C355.151 141.51 356.212 141.234 357.577 141.234H359.159V140.487C359.159 139.919 358.989 139.468 358.649 139.134C358.31 138.794 357.809 138.624 357.146 138.624C356.566 138.624 356.08 138.771 355.688 139.063C355.295 139.356 355.099 139.711 355.099 140.127H353.464C353.464 139.652 353.631 139.195 353.965 138.756C354.305 138.311 354.762 137.959 355.336 137.701C355.916 137.443 356.552 137.314 357.243 137.314C358.339 137.314 359.197 137.59 359.818 138.141C360.439 138.686 360.762 139.438 360.785 140.399V144.776C360.785 145.649 360.896 146.344 361.119 146.859V147H359.414ZM356.716 145.761C357.226 145.761 357.709 145.629 358.166 145.365C358.623 145.102 358.954 144.759 359.159 144.337V142.386H357.885C355.893 142.386 354.896 142.969 354.896 144.135C354.896 144.645 355.066 145.043 355.406 145.33C355.746 145.617 356.183 145.761 356.716 145.761ZM365.101 147H363.475V137.49H365.101V147ZM363.343 134.968C363.343 134.704 363.422 134.481 363.58 134.3C363.744 134.118 363.984 134.027 364.301 134.027C364.617 134.027 364.857 134.118 365.021 134.3C365.186 134.481 365.268 134.704 365.268 134.968C365.268 135.231 365.186 135.451 365.021 135.627C364.857 135.803 364.617 135.891 364.301 135.891C363.984 135.891 363.744 135.803 363.58 135.627C363.422 135.451 363.343 135.231 363.343 134.968ZM369.478 147H367.852V133.5H369.478V147ZM372.123 146.147C372.123 145.866 372.205 145.632 372.369 145.444C372.539 145.257 372.791 145.163 373.125 145.163C373.459 145.163 373.711 145.257 373.881 145.444C374.057 145.632 374.145 145.866 374.145 146.147C374.145 146.417 374.057 146.643 373.881 146.824C373.711 147.006 373.459 147.097 373.125 147.097C372.791 147.097 372.539 147.006 372.369 146.824C372.205 146.643 372.123 146.417 372.123 146.147ZM380.648 145.849C381.229 145.849 381.735 145.673 382.169 145.321C382.603 144.97 382.843 144.53 382.89 144.003H384.428C384.398 144.548 384.211 145.066 383.865 145.559C383.52 146.051 383.057 146.443 382.477 146.736C381.902 147.029 381.293 147.176 380.648 147.176C379.354 147.176 378.322 146.745 377.555 145.884C376.793 145.017 376.412 143.833 376.412 142.333V142.061C376.412 141.135 376.582 140.312 376.922 139.591C377.262 138.87 377.748 138.311 378.381 137.912C379.02 137.514 379.772 137.314 380.64 137.314C381.706 137.314 382.591 137.634 383.294 138.272C384.003 138.911 384.381 139.74 384.428 140.76H382.89C382.843 140.145 382.608 139.641 382.187 139.248C381.771 138.85 381.255 138.65 380.64 138.65C379.813 138.65 379.172 138.949 378.715 139.547C378.264 140.139 378.038 140.997 378.038 142.122V142.43C378.038 143.525 378.264 144.369 378.715 144.961C379.166 145.553 379.811 145.849 380.648 145.849ZM385.825 142.157C385.825 141.226 386.007 140.388 386.37 139.644C386.739 138.899 387.249 138.325 387.899 137.921C388.556 137.517 389.303 137.314 390.141 137.314C391.436 137.314 392.481 137.763 393.278 138.659C394.081 139.556 394.482 140.748 394.482 142.236V142.351C394.482 143.276 394.304 144.108 393.946 144.847C393.595 145.579 393.088 146.15 392.426 146.561C391.77 146.971 391.014 147.176 390.158 147.176C388.869 147.176 387.823 146.728 387.021 145.831C386.224 144.935 385.825 143.748 385.825 142.271V142.157ZM387.46 142.351C387.46 143.405 387.703 144.252 388.189 144.891C388.682 145.529 389.338 145.849 390.158 145.849C390.984 145.849 391.641 145.526 392.127 144.882C392.613 144.231 392.856 143.323 392.856 142.157C392.856 141.114 392.607 140.271 392.109 139.626C391.617 138.976 390.961 138.65 390.141 138.65C389.338 138.65 388.69 138.97 388.198 139.608C387.706 140.247 387.46 141.161 387.46 142.351ZM398.051 137.49L398.095 138.545C398.792 137.725 399.732 137.314 400.916 137.314C402.246 137.314 403.151 137.824 403.632 138.844C403.948 138.387 404.358 138.018 404.862 137.736C405.372 137.455 405.973 137.314 406.664 137.314C408.75 137.314 409.811 138.419 409.846 140.628V147H408.22V140.725C408.22 140.045 408.064 139.538 407.754 139.204C407.443 138.864 406.922 138.694 406.189 138.694C405.586 138.694 405.085 138.876 404.687 139.239C404.288 139.597 404.057 140.08 403.992 140.689V147H402.357V140.769C402.357 139.386 401.681 138.694 400.327 138.694C399.261 138.694 398.531 139.148 398.139 140.057V147H396.513V137.49H398.051Z" fill="#234AAF"/>
</svg>
